<?xml version="1.0" encoding="UTF-8" standalone="no"?>
<!-- Created with Inkscape (http://www.inkscape.org/) -->
<svg
   xmlns:dc="http://purl.org/dc/elements/1.1/"
   xmlns:cc="http://creativecommons.org/ns#"
   xmlns:rdf="http://www.w3.org/1999/02/22-rdf-syntax-ns#"
   xmlns:svg="http://www.w3.org/2000/svg"
   xmlns="http://www.w3.org/2000/svg"
   xmlns:sodipodi="http://sodipodi.sourceforge.net/DTD/sodipodi-0.dtd"
   xmlns:inkscape="http://www.inkscape.org/namespaces/inkscape"
   width="744.09448819"
   height="1052.3622047"
   id="svg4783"
   sodipodi:version="0.32"
   inkscape:version="0.46+pre4"
   sodipodi:docname="biodegradable symbol.svg"
   inkscape:output_extension="org.inkscape.output.svg.inkscape">
  <defs
     id="defs4785">
    <inkscape:perspective
       sodipodi:type="inkscape:persp3d"
       inkscape:vp_x="0 : 526.18109 : 1"
       inkscape:vp_y="0 : 1000 : 0"
       inkscape:vp_z="744.09448 : 526.18109 : 1"
       inkscape:persp3d-origin="372.04724 : 350.78739 : 1"
       id="perspective4791" />
    <inkscape:perspective
       id="perspective4800"
       inkscape:persp3d-origin="372.04724 : 350.78739 : 1"
       inkscape:vp_z="744.09448 : 526.18109 : 1"
       inkscape:vp_y="0 : 1000 : 0"
       inkscape:vp_x="0 : 526.18109 : 1"
       sodipodi:type="inkscape:persp3d" />
  </defs>
  <sodipodi:namedview
     id="base"
     pagecolor="#ffffff"
     bordercolor="#666666"
     borderopacity="1.0"
     gridtolerance="10000"
     guidetolerance="10"
     objecttolerance="10"
     inkscape:pageopacity="0.0"
     inkscape:pageshadow="2"
     inkscape:zoom="0.35"
     inkscape:cx="-23.571429"
     inkscape:cy="520"
     inkscape:document-units="px"
     inkscape:current-layer="layer1"
     showgrid="false"
     inkscape:window-width="1280"
     inkscape:window-height="751"
     inkscape:window-x="-4"
     inkscape:window-y="-4" />
  <metadata
     id="metadata4788">
    <rdf:RDF>
      <cc:Work
         rdf:about="">
        <dc:format>image/svg+xml</dc:format>
        <dc:type
           rdf:resource="http://purl.org/dc/dcmitype/StillImage" />
        <cc:license
           rdf:resource="" />
        <dc:title>Biodegradable symbol</dc:title>
        <dc:subject>
          <rdf:Bag>
            <rdf:li>Biodegradable symbol icon globe earth degradable degrade degenrate decompose</rdf:li>
          </rdf:Bag>
        </dc:subject>
      </cc:Work>
    </rdf:RDF>
  </metadata>
  <g
     inkscape:label="Layer 1"
     inkscape:groupmode="layer"
     id="layer1">
    <path
       style="fill:#000000"
       d="M 324.8152,666.01253 C 322.47823,664.96733 318.00841,664.04494 314.88228,663.96283 C 306.48014,663.74209 254.21865,647.27421 244.2208,641.69702 C 239.47127,639.04755 227.93703,632.70498 218.58913,627.60246 C 193.48148,613.89747 159.27088,584.6305 137.26719,558.03199 C 118.45508,535.29158 90.024017,486.97216 86.788902,472.24273 C 86.006123,468.67882 82.536609,457.03472 79.078844,446.36693 C 68.779781,414.5925 65.372643,366.02637 70.337459,321.76556 C 75.804893,273.02419 101.05974,212.08729 130.20335,177.31635 C 135.58151,170.8997 141.89391,163.25897 144.23089,160.33694 C 149.69405,153.5061 163.99157,139.20857 170.82241,133.74541 C 173.74444,131.40844 181.38517,125.11977 187.80182,119.77058 C 194.21845,114.42142 202.81456,108.055 206.90427,105.62297 C 228.7466,92.634031 255.84429,78.76337 264.26634,76.260705 C 321.26298,59.323787 331.49759,57.559797 372.61693,57.585908 C 403.48818,57.605517 434.34877,60.854654 448.02546,65.525244 C 452.70599,67.123649 463.70579,70.531402 472.46944,73.098058 C 488.24607,77.718637 509.77824,87.730614 531.51841,100.55448 C 537.70438,104.20341 543.33455,107.18889 544.02991,107.18889 C 544.72526,107.18889 551.13643,112.22445 558.27695,118.37902 C 565.41744,124.53359 575.82709,133.22342 581.40946,137.68973 C 594.99191,148.55668 627.99048,189.63598 637.9782,208.11108 C 642.39782,216.2864 648.42039,227.27747 651.36168,232.53566 C 657.13212,242.8515 670.99825,284.84991 674.65908,303.09987 C 678.69074,323.19846 679.28516,393.7187 675.60358,415.15112 C 662.59048,490.90731 623.84091,555.62318 561.48623,605.73913 C 545.95103,618.22516 539.78813,622.08072 507.82685,639.30899 C 492.51324,647.56359 462.46027,657.79227 437.41484,663.27408 C 420.38081,667.00241 331.84287,669.15567 324.8152,666.01253 z M 423.14419,631.89558 C 451.0555,617.72237 482.38979,584.96556 501.02522,550.47891 C 505.34781,542.47953 508.36937,534.59225 507.73981,532.95161 C 506.18757,528.90652 387.69003,528.49249 383.66445,532.51808 C 380.91534,535.26719 379.81942,638.43998 382.51075,641.1313 C 385.86071,644.48129 408.4868,639.33852 423.14419,631.89558 z M 355.62076,588.39299 C 356.20501,560.34931 355.86513,535.60577 354.86545,533.40734 C 353.27113,529.90116 351.47147,529.57498 340.21329,530.75169 C 333.15425,531.48951 306.48617,532.09317 280.95087,532.09317 C 236.40996,532.09317 234.52304,532.26075 234.52304,536.21683 C 234.52304,538.48484 235.37464,540.86681 236.41546,541.51007 C 237.45629,542.15333 240.91567,547.70696 244.10296,553.85146 C 266.62229,597.26444 318.08049,641.1183 344.99816,639.8367 L 354.5585,639.3815 L 355.62076,588.39299 z M 498.59689,616.48834 C 504.67531,612.66076 514.26702,607.16356 519.91181,604.27234 C 543.48626,592.19771 600.69767,538.47426 596.76246,532.10696 C 594.73926,528.83335 541.49255,529.30933 538.88742,532.6243 C 537.73958,534.08491 531.79445,544.98097 525.67602,556.83775 C 519.55757,568.69453 506.99516,588.09347 497.75955,599.94652 C 488.52394,611.79956 480.96753,621.93627 480.96753,622.47254 C 480.96753,625.31126 488.8168,622.64686 498.59689,616.48834 z M 255.49626,613.15076 C 253.89313,610.99295 246.74758,601.54042 239.61726,592.14513 C 232.48695,582.74984 222.57064,567.06768 217.58098,557.29588 C 204.05199,530.80049 206.14209,532.09317 176.83169,532.09317 C 155.67528,532.09317 151.66671,532.61022 151.66671,535.33912 C 151.66671,539.51712 189.29468,577.33237 205.65724,589.59838 C 232.96158,610.06678 264.15782,624.80916 255.49626,613.15076 z M 193.19577,504.31113 C 193.97343,503.05286 193.11961,498.03367 191.2984,493.15739 C 185.90543,478.71787 175.60813,422.19304 174.25033,399.57581 C 173.55761,388.03681 171.89997,377.28142 170.56673,375.67495 C 168.69122,373.41511 160.38832,372.76144 133.87926,372.78659 C 115.03444,372.80448 98.210669,373.70785 96.493143,374.79408 C 87.360292,380.56997 101.92049,449.92221 119.4586,484.18188 C 131.2412,507.19846 130.07063,506.59892 163.22619,506.59892 C 181.33013,506.59892 192.29937,505.76156 193.19577,504.31113 z M 355.70555,501.06458 C 356.96767,497.74499 357.58427,471.17626 357.24636,434.67329 L 356.68302,373.81633 L 280.20025,373.30268 C 238.04223,373.01955 202.38579,373.639 200.75017,374.68294 C 198.25795,376.27361 198.16282,380.94792 200.15598,403.87763 C 203.96962,447.75059 216.45121,499.7847 224.3663,504.80726 C 225.86282,505.75688 255.55292,506.5485 290.34431,506.56639 L 353.60141,506.59892 L 355.70555,501.06458 z M 522.10446,499.69422 C 533.83841,480.95686 550.38543,378.64118 542.47267,373.75085 C 539.35604,371.82465 386.88356,372.50998 384.97421,374.45876 C 382.989,376.48494 380.14662,491.82869 381.90887,498.85004 L 383.32049,504.47439 L 451.21573,504.47439 L 519.11095,504.47439 L 522.10446,499.69422 z M 618.33806,499.69422 C 626.936,490.06081 634.12948,474.3992 642.17806,447.78995 C 651.89147,415.67658 657.53478,375.55262 652.76319,372.52953 C 647.99351,369.50767 577.98297,370.17813 573.85426,373.2852 C 571.11755,375.34473 569.83551,382.07398 568.14291,403.26319 C 565.75996,433.09451 558.71445,473.86393 554.03587,484.89466 C 552.40834,488.73188 551.07673,494.7071 551.07673,498.17292 L 551.07673,504.47439 L 582.57423,504.47439 C 612.55783,504.47439 614.27676,504.24465 618.33806,499.69422 z M 171.5422,344.92955 C 172.94281,342.92989 174.35473,334.27087 174.6798,325.68725 C 175.51769,303.56346 186.71035,242.73361 191.74874,232.92113 C 195.83948,224.95422 192.78149,224.03757 162.11228,224.03757 C 135.54992,224.03757 132.12168,224.4619 128.36953,228.21406 C 122.27221,234.31137 114.49806,250.6076 107.97457,270.96602 C 104.8253,280.79422 100.94314,292.92057 99.347543,297.91347 C 94.862062,311.94925 93.074384,342.15531 96.485919,346.26596 C 98.869781,349.13833 104.45572,349.55905 134.14032,349.10196 C 164.24167,348.63848 169.34296,348.06938 171.5422,344.92955 z M 357.74528,287.77321 C 358.32953,255.63983 357.97346,228.15383 356.95403,226.69322 C 355.53884,224.66562 339.71211,224.04526 290.0316,224.0701 C 254.2437,224.08799 223.94082,224.80501 222.6919,225.66349 C 218.77828,228.35356 213.06978,245.44304 207.83731,270.13361 C 202.3825,295.87335 197.34647,339.30939 199.24375,344.25361 C 200.24121,346.85292 212.15186,347.22858 278.55024,346.75492 L 356.68302,346.19755 L 357.74528,287.77321 z M 542.09702,344.60416 C 547.4336,338.05262 536.54297,263.30414 526.23328,235.72244 L 522.26268,225.09983 L 453.28223,225.09983 L 384.3018,225.09983 L 383.23954,283.15189 C 382.6553,315.08052 382.94181,342.56651 383.87624,344.23188 C 386.22866,348.42445 538.69298,348.78318 542.09702,344.60416 z M 651.44246,344.60416 C 654.54033,342.21947 654.61787,339.88919 652.20244,321.76556 C 647.63699,287.50952 627.0006,231.37909 616.04961,223.43085 C 612.47805,220.83859 553.56374,222.82528 550.7564,225.63262 C 548.96474,227.42427 549.26915,229.97474 551.94853,235.62114 C 553.92752,239.79153 556.9253,251.08075 558.61031,260.70828 C 560.29531,270.3358 562.66141,281.55899 563.8683,285.64869 C 565.0752,289.7384 566.66564,303.92227 567.40259,317.16843 C 568.31601,333.58639 569.69861,342.20844 571.74624,344.25608 C 575.82564,348.33548 646.19597,348.64283 651.44246,344.60416 z M 200.96113,198.01218 C 202.81301,196.55158 209.43092,185.31817 215.66758,173.04906 C 221.90424,160.77995 234.00727,141.75806 242.56321,130.77822 C 251.43687,119.39066 257.32198,110.01733 256.263,108.95834 C 253.84051,106.53586 218.69984,126.77424 201.86839,140.28554 C 177.29477,160.01183 146.45617,192.97331 148.23557,197.61035 C 149.80406,201.69778 195.84335,202.04865 200.96113,198.01218 z M 357.01167,196.14605 C 359.26867,194.2729 359.86981,182.44286 359.86981,139.89932 L 359.86981,86.024623 L 354.5585,84.691571 C 347.57293,82.93831 341.66716,84.562825 322.63746,93.472218 C 303.02569,102.65414 279.0706,123.18577 262.41597,145.08736 C 246.88956,165.50527 230.43598,196.01624 233.82125,198.11238 C 237.94159,200.66367 353.79646,198.81442 357.01167,196.14605 z M 509.47552,196.69876 C 511.21296,193.88755 493.13683,161.6729 480.11141,144.36704 C 463.70723,122.57215 442.61936,104.44263 422.08862,94.484128 C 402.302,84.88656 395.8238,82.910224 390.10277,84.72601 C 386.29237,85.935372 385.94563,89.369427 384.58772,139.34582 C 383.53177,178.20846 383.79925,193.47106 385.57377,195.60922 C 387.54019,197.9786 399.58829,198.54331 448.1722,198.54331 C 481.26203,198.54331 508.84853,197.71326 509.47552,196.69876 z M 598.70958,196.69203 C 600.3457,194.04475 575.48446,165.6042 559.39933,151.72224 C 538.23119,133.45348 529.98935,127.54404 513.25303,118.63511 C 504.71908,114.09242 494.68072,108.74853 490.94555,106.7598 C 487.21037,104.77108 483.46953,103.09802 482.63258,103.04189 C 480.15628,102.87584 488.52077,115.66297 501.64269,132.10343 C 508.3829,140.54823 519.63381,158.4452 526.64474,171.8745 C 533.65566,185.30376 540.82592,196.68714 542.57865,197.1709 C 548.89846,198.91513 597.59238,198.4997 598.70958,196.69203 z"
       id="path4806" />
  </g>
</svg>
